<?xml version="1.0" standalone="no"?>
<!DOCTYPE svg PUBLIC "-//W3C//DTD SVG 20010904//EN"
 "http://www.w3.org/TR/2001/REC-SVG-20010904/DTD/svg10.dtd">
<svg version="1.0" xmlns="http://www.w3.org/2000/svg"
 width="700.000000pt" height="700.000000pt" viewBox="0 0 700.000000 700.000000"
 preserveAspectRatio="xMidYMid meet">
<metadata>
Created by potrace 1.14, written by Peter Selinger 2001-2017
</metadata>
<g transform="translate(0.000000,700.000000) scale(0.100000,-0.100000)"
fill="#000000" stroke="none">
<path d="M679 6871 c0 -9 -1 -287 -1 -618 -1 -428 -4 -603 -12 -605 -6 -2
-158 -4 -338 -3 l-328 0 0 -337 0 -338 93 0 c50 0 203 -1 338 -1 l246 0 0
-554 c0 -394 -3 -555 -11 -556 -6 -1 -153 -3 -326 -4 -173 -2 -321 -3 -327 -4
-10 -1 -13 -76 -13 -339 l0 -337 338 0 337 0 1 -562 1 -563 -116 -1 c-64 0
-216 0 -338 0 l-223 1 0 -340 0 -340 338 0 339 0 1 -612 c0 -337 1 -620 1
-629 1 -16 210 -17 2801 -17 2766 0 2800 0 2892 20 257 56 467 229 566 468 65
159 61 -56 59 2925 l-2 2710 -23 73 c-67 218 -213 397 -401 492 -63 31 -134
57 -183 65 -18 4 -50 10 -70 14 -20 5 -1297 9 -2837 9 -2590 0 -2801 -1 -2802
-17z m5589 -681 c18 -11 37 -32 43 -48 13 -30 18 -5198 5 -5263 -3 -20 -18
-47 -32 -60 l-26 -24 -2451 -3 -2452 -2 0 2710 0 2710 2440 0 c2421 0 2440 0
2473 -20z"/>
<path d="M3519 5082 c-75 -3 -75 -3 -86 -35 -7 -18 -73 -210 -148 -427 -75
-217 -141 -404 -145 -415 -5 -11 -54 -153 -110 -315 -56 -162 -112 -324 -125
-360 -13 -36 -64 -182 -113 -325 -223 -644 -390 -1122 -421 -1210 -11 -32 -21
-63 -21 -67 0 -5 198 -7 441 -6 l441 3 23 75 c55 182 86 283 121 400 20 69 41
128 47 131 5 4 195 7 423 7 l413 0 36 -116 c20 -65 57 -182 81 -262 25 -80 52
-166 60 -192 l16 -48 439 0 c241 0 439 2 439 4 0 2 -27 82 -61 177 -33 96 -62
181 -65 189 -2 8 -12 40 -23 70 -29 81 -149 427 -257 740 -53 151 -115 331
-139 400 -154 444 -214 616 -300 865 -53 154 -130 378 -172 498 l-76 217 -76
0 c-42 0 -186 1 -321 3 -135 1 -279 1 -321 -1z m365 -1134 c21 -73 47 -162 56
-198 21 -74 83 -290 105 -365 50 -169 74 -260 70 -264 -7 -6 -565 -7 -565 0 0
3 18 66 41 140 22 74 45 148 49 164 5 17 25 84 45 150 20 66 43 143 51 170 9
28 19 64 24 80 4 17 20 71 35 120 15 50 30 100 32 113 3 12 8 22 12 22 4 0 24
-60 45 -132z"/>
</g>
</svg>
